<svg xmlns="http://www.w3.org/2000/svg" aria-hidden="true" style="position:absolute;width:0;height:0;overflow:hidden"><defs><symbol id="icon-logo" viewBox="0 0 32 32"><path d="M7.483 24.047a.47.47 0 0 0-.47.47c0 .57-.464 1.033-1.033 1.033s-1.033-.464-1.033-1.033.464-1.033 1.033-1.033a.47.47 0 0 0 0-.94c-1.088 0-1.973.885-1.973 1.973s.885 1.973 1.973 1.973 1.973-.885 1.973-1.973a.47.47 0 0 0-.47-.47zM27.523 24.047a.47.47 0 0 0-.47.47c0 .57-.464 1.033-1.033 1.033s-1.033-.464-1.033-1.033.464-1.033 1.033-1.033a.47.47 0 0 0 0-.94c-1.088 0-1.973.885-1.973 1.973s.885 1.973 1.973 1.973 1.973-.885 1.973-1.973a.47.47 0 0 0-.47-.47zM28.023 16.031h-1.002a.47.47 0 0 0 0 .94h1.002a.47.47 0 0 0 0-.94zM20.509 20.039h-9.018a.47.47 0 0 0 0 .94h9.018a.47.47 0 0 0 0-.94z"/><path d="M29.527 14.027h-6.292l-4.271-5.183-.015-.017a2.48 2.48 0 0 0-1.478-.785V5.98a1.975 1.975 0 0 0-1.973-1.973h-2.035v-.031a.47.47 0 0 0-.94 0v.031H9.956v-.031a.47.47 0 0 0-.94 0v.031H6.981A1.975 1.975 0 0 0 5.008 5.98v2.038a2.474 2.474 0 0 0-2.024 1.149l-.012.021-2.594 4.577a2.47 2.47 0 0 0-.38 1.316v5.429a2.48 2.48 0 0 0 1.439 2.241.47.47 0 0 0 .639-.268h.488a3.947 3.947 0 0 0-.562 2.035c0 2.193 1.784 3.977 3.977 3.977s3.977-1.784 3.977-3.977c0-.743-.206-1.439-.562-2.035h.487l.034.135a.47.47 0 0 0 .458.366h11.253a.47.47 0 0 0 .458-.366c.01-.045.022-.09.034-.135h.487a3.947 3.947 0 0 0-.562 2.035c0 2.193 1.784 3.977 3.977 3.977s3.977-1.784 3.977-3.977c0-.743-.206-1.439-.562-2.035h.487l.034.135a.47.47 0 0 0 .458.366h.114c.813 0 1.473-.661 1.473-1.473v-5.009a2.476 2.476 0 0 0-2.473-2.473zm1.534 4.008h-.532a.532.532 0 0 1 0-1.064h.532v1.065zm-11.989-7.582 2.946 3.575H7.267l1.536-2.859a1.53 1.53 0 0 1 1.297-.711h8.907a.491.491 0 0 0 .067-.005zm-3.573-5.506c.57 0 1.033.464 1.033 1.033v2.035h-3.069V4.946h2.035zm-2.975 0v3.068H9.957V4.946h2.567zm-5.542 0h2.035v3.068H5.948V5.98c0-.57.464-1.033 1.033-1.033zm-3.638 5.492a.477.477 0 0 0 .131.019h2.22l-1.536 2.86a1.526 1.526 0 0 1-1.294.709H1.31l2.034-3.588zM5.98 27.554c-1.675 0-3.037-1.362-3.037-3.037S4.305 21.48 5.98 21.48s3.037 1.362 3.037 3.037-1.362 3.037-3.037 3.037zm2.636-6.012c-.702-.623-1.625-1.002-2.635-1.002s-1.933.379-2.635 1.002h-.885a4.045 4.045 0 0 1 3.52-2.067c.934 0 1.81.31 2.535.896.402.325.736.724.986 1.17h-.885zm17.404 6.012c-1.675 0-3.037-1.362-3.037-3.037s1.362-3.037 3.037-3.037 3.037 1.362 3.037 3.037-1.362 3.037-3.037 3.037zm2.635-6.012c-.702-.623-1.625-1.002-2.635-1.002s-1.933.379-2.635 1.002H22.5c.25-.446.584-.845.986-1.17.724-.586 1.601-.896 2.535-.896s1.81.31 2.535.896c.402.325.736.724.986 1.17h-.885zm2.101.449a5.014 5.014 0 0 0-1.611-2.35c-.881-.713-1.991-1.105-3.126-1.105s-2.245.393-3.126 1.105a5.015 5.015 0 0 0-1.628 2.401H10.732a4.983 4.983 0 0 0-4.754-3.506 4.988 4.988 0 0 0-4.588 3.055 1.527 1.527 0 0 1-.453-1.082v-3.538h24.078a.47.47 0 0 0 0-.94H.937v-.952c0-.038.002-.076.004-.114l.027.001h1.895c.859 0 1.643-.435 2.099-1.163l.015-.027 1.916-3.566a.469.469 0 0 0-.414-.692H3.887a1.538 1.538 0 0 1 1.194-.564h12.031c.429 0 .842.181 1.133.496l.055.067h-8.204c-.86 0-1.645.435-2.101 1.164l-.015.027-1.915 3.565a.469.469 0 0 0 .414.692h23.046c.682 0 1.261.448 1.46 1.065h-.459a1.473 1.473 0 0 0 0 2.944h.532v2.535a.536.536 0 0 1-.304.482z"/></symbol><symbol id="icon-down-arrow" viewBox="0 0 32 32"><path fill="none" stroke-linecap="round" stroke-linejoin="round" stroke-width="3.2" d="m8 12 8 8 8-8"/></symbol><symbol id="icon-heart" viewBox="0 0 32 32"><path d="M27.787 6.147a7.345 7.345 0 0 0-5.187-2.15 7.33 7.33 0 0 0-5.187 2.15L16 7.56l-1.413-1.413a7.333 7.333 0 0 0-10.374 0 7.333 7.333 0 0 0 0 10.374L16 28.308l11.787-11.787a7.345 7.345 0 0 0 2.15-5.187 7.33 7.33 0 0 0-2.15-5.187z"/></symbol><symbol id="icon-close" viewBox="0 0 32 32"><path stroke-linecap="round" stroke-linejoin="round" stroke-width="2.4" d="M24 8 8 24M8 8l16 16"/></symbol></defs></svg>